<?xml version="1.0" standalone="no"?>
<!DOCTYPE svg PUBLIC "-//W3C//DTD SVG 20010904//EN"
 "http://www.w3.org/TR/2001/REC-SVG-20010904/DTD/svg10.dtd">
<svg version="1.0" xmlns="http://www.w3.org/2000/svg"
 width="512.000000pt" height="512.000000pt" viewBox="0 0 512.000000 512.000000"
 preserveAspectRatio="xMidYMid meet">

<g transform="translate(0.000000,512.000000) scale(0.100000,-0.100000)"
fill="#000000" stroke="none">
<path d="M1535 5104 c-59 -21 -110 -67 -139 -126 l-26 -52 0 -1590 c0 -1020 4
-1604 10 -1627 14 -51 76 -118 134 -145 50 -23 58 -24 334 -24 l282 0 0 85 0
85 -270 0 -271 0 -24 25 -25 24 0 1565 c0 860 3 1572 6 1581 18 46 4 45 1014
45 1010 0 996 1 1014 -45 3 -9 6 -721 6 -1581 l0 -1565 -25 -24 -24 -25 -271
0 -270 0 0 -85 0 -85 283 0 c275 0 283 1 333 24 58 27 120 94 134 145 6 23 10
607 10 1627 l0 1590 -26 52 c-30 61 -80 105 -143 127 -65 22 -1984 21 -2046
-1z"/>
<path d="M172 4761 c-60 -21 -113 -67 -145 -126 l-22 -40 0 -1265 c0 -1231 1
-1266 19 -1304 23 -46 74 -99 119 -123 29 -16 76 -18 540 -21 l507 -3 0 86 0
85 -483 0 c-472 0 -484 0 -505 20 -12 11 -24 31 -27 43 -3 12 -4 568 -3 1234
l3 1212 23 23 23 23 484 3 485 3 0 84 0 85 -482 0 c-442 -1 -487 -2 -536 -19z"/>
<path d="M3930 4695 l0 -84 485 -3 484 -3 23 -23 23 -23 3 -1212 c1 -666 0
-1222 -3 -1234 -3 -12 -15 -32 -27 -43 -21 -20 -33 -20 -505 -20 l-483 0 0
-85 0 -86 508 3 c463 3 510 5 539 21 45 24 96 77 119 123 18 38 19 73 19 1304
l0 1265 -22 41 c-12 22 -40 57 -62 77 -73 65 -87 67 -623 67 l-478 0 0 -85z"/>
<path d="M2050 4605 l0 -85 85 0 85 0 0 85 0 85 -85 0 -85 0 0 -85z"/>
<path d="M2390 4605 l0 -85 340 0 340 0 0 85 0 85 -340 0 -340 0 0 -85z"/>
<path d="M600 4355 l0 -85 85 0 85 0 0 85 0 85 -85 0 -85 0 0 -85z"/>
<path d="M940 4355 l0 -85 125 0 125 0 0 85 0 85 -125 0 -125 0 0 -85z"/>
<path d="M3930 4355 l0 -85 295 0 295 0 0 85 0 85 -295 0 -295 0 0 -85z"/>
<path d="M1790 4100 l0 -170 85 0 85 0 0 170 0 170 -85 0 -85 0 0 -170z"/>
<path d="M2137 4263 c-4 -3 -7 -80 -7 -170 l0 -163 85 0 85 0 0 170 0 170 -78
0 c-43 0 -82 -3 -85 -7z"/>
<path d="M2477 4264 c-4 -4 -7 -81 -7 -171 l0 -163 90 0 90 0 -2 168 -3 167
-80 3 c-45 1 -84 0 -88 -4z"/>
<path d="M2820 4100 l0 -170 85 0 85 0 -2 168 -3 167 -82 3 -83 3 0 -171z"/>
<path d="M3160 4100 l0 -170 85 0 85 0 0 170 0 170 -85 0 -85 0 0 -170z"/>
<path d="M342 3883 l3 -128 83 -3 82 -3 0 131 0 130 -85 0 -86 0 3 -127z"/>
<path d="M682 3883 l3 -128 83 -3 82 -3 0 131 0 130 -85 0 -86 0 3 -127z"/>
<path d="M1022 3883 l3 -128 83 -3 82 -3 0 131 0 130 -85 0 -86 0 3 -127z"/>
<path d="M3930 3880 l0 -131 83 3 82 3 3 128 3 127 -86 0 -85 0 0 -130z"/>
<path d="M4270 3880 l0 -131 83 3 82 3 3 128 3 127 -86 0 -85 0 0 -130z"/>
<path d="M4610 3880 l0 -131 83 3 82 3 3 128 3 127 -86 0 -85 0 0 -130z"/>
<path d="M2050 3585 l0 -85 125 0 125 0 0 85 0 85 -125 0 -125 0 0 -85z"/>
<path d="M2477 3663 c-4 -3 -7 -42 -7 -85 l0 -78 300 0 300 0 0 85 0 85 -293
0 c-162 0 -297 -3 -300 -7z"/>
<path d="M680 3415 l0 -85 255 0 255 0 0 85 0 85 -255 0 -255 0 0 -85z"/>
<path d="M3930 3415 l0 -85 210 0 210 0 0 85 0 85 -210 0 -210 0 0 -85z"/>
<path d="M2050 3245 l0 -85 510 0 510 0 0 85 0 85 -510 0 -510 0 0 -85z"/>
<path d="M857 3153 c-4 -3 -7 -42 -7 -85 l0 -78 170 0 170 0 0 85 0 85 -163 0
c-90 0 -167 -3 -170 -7z"/>
<path d="M3930 3075 l0 -85 125 0 125 0 0 85 0 85 -125 0 -125 0 0 -85z"/>
<path d="M2220 2905 l0 -85 340 0 340 0 0 85 0 85 -340 0 -340 0 0 -85z"/>
<path d="M633 2810 c-82 -17 -145 -69 -182 -150 -56 -123 7 -280 134 -337 35
-15 78 -18 323 -21 l282 -4 0 86 0 85 -271 3 -271 3 -24 28 c-31 36 -31 78 0
114 l24 28 271 3 271 3 0 85 0 84 -257 -1 c-142 -1 -277 -5 -300 -9z"/>
<path d="M3930 2736 l0 -85 271 -3 271 -3 24 -28 c31 -36 31 -78 0 -114 l-24
-28 -271 -3 -271 -3 0 -85 0 -86 283 4 c312 4 328 7 396 71 106 101 106 273 0
374 -68 64 -84 67 -396 71 l-283 4 0 -86z"/>
<path d="M2257 2639 c-208 -40 -278 -298 -120 -440 68 -62 84 -64 423 -64 339
0 355 2 423 64 82 74 110 195 66 291 -38 83 -101 132 -194 149 -71 13 -530 13
-598 0z m618 -194 c32 -31 32 -75 1 -112 l-24 -28 -292 0 -292 0 -24 28 c-31
37 -31 81 1 112 l24 25 291 0 291 0 24 -25z"/>
<path d="M2455 1936 c-28 -12 -65 -40 -84 -61 -68 -78 -66 -52 -69 -657 -2
-302 -5 -548 -7 -548 -2 0 -46 25 -97 56 -135 83 -185 104 -243 104 -98 0
-210 -80 -234 -167 -25 -89 -3 -181 55 -237 16 -15 154 -117 307 -227 l279
-199 710 0 710 0 29 29 29 29 0 499 c0 312 -4 512 -10 535 -15 53 -68 118
-125 153 -42 26 -58 30 -119 30 -59 0 -80 -5 -121 -28 l-51 -28 -47 26 c-83
47 -210 41 -269 -12 -17 -15 -22 -14 -75 13 -48 24 -69 28 -129 28 l-72 -1 -4
241 c-3 227 -5 244 -27 294 -58 130 -209 188 -336 128z m152 -161 c38 -27 43
-74 43 -438 l0 -348 25 -24 c50 -51 127 -19 140 56 12 69 66 104 122 77 21
-10 32 -27 46 -68 10 -30 27 -63 38 -72 48 -41 124 -6 135 60 3 21 11 44 17
53 48 64 140 38 153 -43 19 -113 144 -116 173 -4 20 79 84 108 138 62 l28 -24
3 -446 3 -446 -627 0 -627 0 -241 171 c-281 200 -296 213 -296 250 0 31 40 69
74 69 11 0 108 -52 215 -115 120 -72 204 -115 221 -115 15 0 39 9 53 21 l26
20 3 635 3 636 28 24 c32 27 73 31 104 9z"/>
</g>
</svg>
