<?xml version="1.0" standalone="no"?>
<!DOCTYPE svg PUBLIC "-//W3C//DTD SVG 20010904//EN"
 "http://www.w3.org/TR/2001/REC-SVG-20010904/DTD/svg10.dtd">
<svg version="1.0" xmlns="http://www.w3.org/2000/svg"
 width="512.000000pt" height="512.000000pt" viewBox="0 0 512.000000 512.000000"
 preserveAspectRatio="xMidYMid meet">

<g transform="translate(0.000000,512.000000) scale(0.100000,-0.100000)"
fill="#000000" stroke="none">
<path d="M1766 4634 c-76 -28 -143 -91 -184 -174 l-27 -55 -5 -551 -5 -550
-690 398 c-742 428 -727 421 -796 381 -62 -37 -60 -4 -57 -872 l3 -791 30 -29
c30 -30 316 -151 357 -151 27 0 68 44 68 73 0 43 -32 66 -170 121 l-135 54 -3
722 c-1 454 1 720 7 718 6 -1 393 -223 860 -493 647 -373 849 -494 844 -505
-28 -70 -33 -127 -33 -378 0 -289 4 -312 59 -345 106 -63 340 -3 445 114 25
28 60 80 77 116 l31 65 40 -6 c59 -10 75 -21 115 -83 122 -191 339 -270 552
-202 46 14 94 43 150 87 26 21 55 35 71 35 29 0 788 -431 828 -470 12 -12 22
-32 22 -44 0 -22 -78 -167 -108 -201 -34 -39 -64 -26 -467 207 -215 124 -400
228 -413 231 -31 9 -68 -12 -82 -46 -24 -57 -13 -65 404 -306 215 -124 400
-234 410 -244 30 -30 23 -68 -29 -159 -53 -91 -82 -117 -119 -107 -13 3 -210
114 -439 246 -228 132 -425 240 -437 240 -32 0 -60 -18 -71 -47 -22 -58 -11
-67 372 -288 371 -214 389 -227 373 -277 -8 -25 -83 -158 -102 -180 -34 -40
-68 -26 -400 166 -376 217 -374 216 -405 216 -31 0 -67 -39 -67 -74 0 -15 10
-37 23 -49 12 -12 109 -71 215 -132 106 -60 202 -118 213 -128 32 -30 24 -74
-32 -167 -28 -47 -56 -88 -63 -92 -31 -20 -75 -3 -244 94 l-177 102 -1 66 c-2
79 -26 140 -80 200 -40 44 -106 83 -162 95 -32 7 -34 9 -29 44 7 53 -11 140
-39 188 -51 89 -156 153 -249 153 l-42 0 -5 68 c-9 122 -82 219 -195 262 -63
23 -150 26 -208 5 -53 -20 -55 -19 -55 13 0 78 -72 189 -153 236 -87 50 -205
53 -294 8 l-38 -20 -145 59 c-80 32 -155 58 -168 59 -29 0 -72 -42 -72 -72 0
-42 28 -65 125 -104 l96 -38 -43 -26 c-92 -57 -134 -132 -126 -224 8 -95 137
-297 209 -326 24 -10 27 -16 23 -39 -9 -45 14 -110 79 -219 47 -78 72 -110
105 -132 45 -30 104 -44 156 -38 24 2 30 -2 39 -26 15 -45 105 -197 135 -229
43 -46 96 -68 163 -68 50 -1 70 5 125 35 35 20 66 36 69 36 2 0 8 -15 15 -32
24 -71 124 -222 168 -252 54 -38 145 -47 207 -22 64 27 261 144 295 176 l31
29 147 -86 c232 -135 235 -136 313 -131 97 5 134 34 215 168 35 58 64 110 64
115 1 34 18 34 81 0 53 -28 75 -35 124 -35 69 0 127 23 167 66 33 37 138 223
138 247 0 14 6 16 39 11 59 -10 139 18 183 63 20 21 62 84 93 141 50 88 58
110 59 157 0 45 4 56 20 61 10 4 38 23 60 44 l42 39 304 3 305 3 56 26 c76 36
133 90 166 157 l28 57 0 1310 0 1310 -34 63 c-41 76 -95 125 -168 152 -53 20
-75 20 -1581 19 -1299 0 -1533 -3 -1566 -15z m3120 -159 c72 -43 84 -81 84
-278 l0 -167 -1310 0 c-1297 0 -1310 0 -1330 -20 -27 -27 -26 -81 1 -106 20
-18 57 -19 1097 -24 l1076 -5 -635 -366 c-349 -201 -650 -372 -669 -380 -28
-11 -152 -15 -585 -19 l-550 -5 -46 -24 -47 -24 -136 79 -136 78 0 333 0 333
174 0 c160 0 175 2 200 21 20 16 26 29 26 59 0 65 -16 70 -222 70 l-178 0 0
158 c1 201 15 244 95 293 29 18 87 19 1539 19 l1509 0 43 -25z m84 -1362 l0
-768 -181 -78 c-100 -43 -182 -77 -184 -75 -1 2 -69 119 -151 260 -157 274
-171 290 -227 269 -29 -11 -47 -39 -47 -71 0 -12 41 -93 92 -181 50 -88 88
-162 84 -166 -3 -4 -81 -39 -172 -80 -142 -62 -169 -71 -188 -61 -11 6 -137
78 -278 160 -142 81 -262 148 -267 148 -18 0 -19 15 -5 70 17 65 17 162 1 210
-17 50 -58 68 -103 46 -19 -8 -35 -24 -35 -33 -1 -10 -2 -58 -3 -108 -1 -72
-6 -99 -25 -137 -56 -114 -163 -182 -286 -181 -119 1 -204 52 -280 168 -18 28
-43 60 -56 72 -32 30 -103 59 -161 68 l-48 6 0 50 c0 40 -5 55 -25 74 -30 31
-71 32 -102 3 -21 -19 -23 -31 -23 -108 0 -104 -19 -174 -63 -232 -40 -53
-121 -95 -199 -104 l-58 -6 0 241 c0 195 3 249 15 279 17 40 48 77 80 95 14 9
179 14 565 17 474 5 552 8 595 23 28 9 165 82 305 162 139 80 256 142 260 138
4 -4 51 -84 105 -178 113 -198 127 -215 171 -215 41 0 78 42 70 80 -2 14 -53
108 -111 210 l-107 185 23 15 c12 8 210 124 438 256 l416 242 83 1 82 1 0
-767z m0 -1100 c0 -142 -3 -174 -19 -208 -43 -95 -76 -104 -373 -105 l-237 0
14 41 c41 114 -13 227 -139 295 l-38 20 133 59 c73 33 134 55 136 50 15 -44
69 -108 100 -122 49 -20 72 -14 253 66 85 38 158 70 163 70 4 1 7 -74 7 -166z
m-3685 8 c16 -9 40 -33 53 -52 20 -28 23 -44 20 -90 -3 -35 -12 -66 -25 -85
-29 -40 -299 -194 -340 -194 -37 0 -57 24 -117 131 -39 72 -43 94 -22 125 16
23 267 170 313 184 35 10 78 3 118 -19z m472 -279 c64 -45 82 -157 36 -220
-18 -24 -346 -224 -500 -304 -60 -31 -64 -32 -90 -18 -30 17 -133 181 -133
212 0 34 50 70 286 207 132 76 247 141 255 144 29 13 116 1 146 -21z m321
-342 c72 -44 96 -151 49 -221 -32 -48 -476 -307 -528 -308 -43 -1 -51 7 -113
115 -50 88 -55 111 -28 142 9 11 123 82 252 156 216 125 239 136 285 136 32 0
61 -7 83 -20z m258 -376 c97 -46 118 -179 41 -251 -18 -17 -80 -58 -139 -91
-107 -62 -149 -74 -180 -50 -18 15 -82 121 -103 172 -24 58 -7 77 140 162 140
80 176 89 241 58z"/>
<path d="M1885 4320 c-25 -28 -23 -76 4 -103 21 -21 29 -22 205 -22 167 0 186
2 205 19 27 25 28 79 1 106 -19 19 -33 20 -208 20 -177 0 -190 -1 -207 -20z"/>
<path d="M3967 4323 c-8 -10 -19 -30 -22 -45 -6 -22 -1 -33 24 -59 26 -25 37
-30 59 -24 15 3 35 14 45 22 23 22 22 78 -3 103 -25 25 -81 26 -103 3z"/>
<path d="M4279 4322 c-49 -40 -15 -125 50 -125 42 0 71 28 71 70 0 64 -70 96
-121 55z"/>
<path d="M4592 4324 c-29 -20 -31 -83 -2 -109 46 -42 120 -10 120 52 0 62 -65
94 -118 57z"/>
</g>
</svg>
