<?xml version="1.0" encoding="UTF-8"?>
<svg id="Calque_1" data-name="Calque 1" xmlns="http://www.w3.org/2000/svg" viewBox="0 0 895.51 178.08">
  <defs>
    <style>
      .cls-1 {
        stroke-width: 0px;
      }
    </style>
  </defs>
  <path class="cls-1" d="M155.88,178.08h-36.05l-2.63-2.39-6.68-6.92c-6.92,6.45-20.05,9.31-29.12,9.31h-28.17c-21.72,0-53.23-14.08-53.23-51.56V54.43C0,24.11,19.81,0,60.16,0h25.06c29.36,0,57.05,19.34,57.05,54.43v71.85c0,13.85-5.97,20.77-10.03,26.02,8.35,9.79,15.99,19.34,23.63,25.78ZM74.48,148c6.45,0,11.94-.72,17.67-2.39-17.19-15.28-20.77-33.42-20.77-44.16h30.08c0,10.26,4.3,21.48,11.7,28.17.72-1.91,1.91-5.01,1.91-6.92v-61.11c0-17.19-11.7-28.41-31.51-28.41h-20.77c-17.19,0-26.74,11.22-26.74,23.63v63.5c0,13.61,4.06,27.69,24.35,27.69h14.08Z"/>
  <path class="cls-1" d="M194.06,5.25v114.35c0,8.59,3.82,21.01,20.05,21.01h23.87c15.99,0,21.25-11.94,21.25-22.44V5.25h38.43v121.27c0,36.28-25.06,51.56-54.19,51.56h-31.75c-34.61,0-58.25-23.39-56.34-56.34V5.25h38.67Z"/>
  <path class="cls-1" d="M426.08,31.75h-79.02v42.49h65.17v23.63h-65.17v53.95h79.02v26.02h-118.4V4.3h118.4v27.45Z"/>
  <path class="cls-1" d="M464.82,178.08h-42.25V4.06h42.25l63.26,120.55V4.06h34.85v174.02h-36.76l-61.35-108.85v108.85Z"/>
  <path class="cls-1" d="M560.08,4.06h150.87v36.76h-55.38v137.26h-37V40.82h-58.49V4.06Z"/>
  <path class="cls-1" d="M742.95,178.08h-34.85V4.3h34.85v173.79Z"/>
  <path class="cls-1" d="M895.51,178.08h-51.8l-31.99-59.2-30.8,59.2h-40.82l51.09-90.71-47.98-83.07h51.09l28.41,51.8,26.98-51.8h38.43l-44.4,79.49,51.8,94.29Z"/>
</svg>