<?xml version="1.0" encoding="UTF-8"?>
<svg id="Calque_1" data-name="Calque 1" xmlns="http://www.w3.org/2000/svg" viewBox="0 0 880.02 175">
  <defs>
    <style>
      .cls-1 {
        fill: #fff;
        stroke-width: 0px;
      }
    </style>
  </defs>
  <path class="cls-1" d="M153.19,175h-35.42l-2.58-2.34-6.57-6.8c-6.8,6.33-19.7,9.15-28.62,9.15h-27.68c-21.35,0-52.31-13.84-52.31-50.67V53.49C0,23.69,19.47,0,59.12,0h24.63c28.85,0,56.07,19,56.07,53.49v70.61c0,13.61-5.86,20.41-9.85,25.57,8.21,9.62,15.72,19,23.22,25.33ZM73.19,145.44c6.33,0,11.73-.7,17.36-2.34-16.89-15.01-20.41-32.84-20.41-43.4h29.56c0,10.09,4.22,21.11,11.49,27.68.7-1.88,1.88-4.93,1.88-6.8v-60.05c0-16.89-11.49-27.92-30.97-27.92h-20.41c-16.89,0-26.27,11.03-26.27,23.22v62.4c0,13.37,3.99,27.21,23.93,27.21h13.84Z"/>
  <path class="cls-1" d="M190.71,5.16v112.37c0,8.44,3.75,20.64,19.7,20.64h23.46c15.72,0,20.88-11.73,20.88-22.05V5.16h37.77v119.17c0,35.66-24.63,50.67-53.25,50.67h-31.2c-34.02,0-57.24-22.99-55.36-55.36V5.16h38Z"/>
  <path class="cls-1" d="M418.71,31.2h-77.65v41.76h64.04v23.22h-64.04v53.02h77.65v25.57h-116.36V4.22h116.36v26.98Z"/>
  <path class="cls-1" d="M456.78,175h-41.52V3.99h41.52l62.17,118.47V3.99h34.25v171.01h-36.13l-60.29-106.97v106.97Z"/>
  <path class="cls-1" d="M550.39,3.99h148.26v36.13h-54.42v134.89h-36.36V40.11h-57.47V3.99Z"/>
  <path class="cls-1" d="M730.1,175h-34.25V4.22h34.25v170.78Z"/>
  <path class="cls-1" d="M880.02,175h-50.91l-31.43-58.18-30.26,58.18h-40.11l50.2-89.14-47.15-81.64h50.2l27.92,50.91,26.51-50.91h37.77l-43.63,78.12,50.91,92.66Z"/>
</svg>