<?xml version="1.0" encoding="UTF-8"?>
<svg id="Calque_1" data-name="Calque 1" xmlns="http://www.w3.org/2000/svg" viewBox="0 0 1068.72 178.08">
  <defs>
    <style>
      .cls-1 {
        fill: #fff;
        stroke-width: 0px;
      }
    </style>
  </defs>
  <path class="cls-1" d="M329.08,178.08h-36.05l-2.63-2.39-6.68-6.92c-6.92,6.45-20.05,9.31-29.12,9.31h-28.17c-21.72,0-53.23-14.08-53.23-51.56V54.43c0-30.32,19.81-54.43,60.16-54.43h25.06c29.36,0,57.05,19.34,57.05,54.43v71.85c0,13.85-5.97,20.77-10.03,26.02,8.35,9.79,15.99,19.34,23.63,25.78h.01ZM247.68,148c6.45,0,11.94-.72,17.67-2.39-17.19-15.28-20.77-33.42-20.77-44.16h30.08c0,10.26,4.3,21.48,11.7,28.17.72-1.91,1.91-5.01,1.91-6.92v-61.11c0-17.19-11.7-28.41-31.51-28.41h-20.77c-17.19,0-26.74,11.22-26.74,23.63v63.5c0,13.61,4.06,27.69,24.35,27.69h14.08Z"/>
  <path class="cls-1" d="M367.26,5.25v114.35c0,8.59,3.82,21.01,20.05,21.01h23.87c15.99,0,21.25-11.94,21.25-22.44V5.25h38.43v121.27c0,36.28-25.06,51.56-54.19,51.56h-31.75c-34.61,0-58.25-23.39-56.34-56.34V5.25h38.68Z"/>
  <path class="cls-1" d="M599.28,31.74h-79.02v42.49h65.17v23.63h-65.17v53.95h79.02v26.02h-118.4V4.29h118.4v27.45Z"/>
  <path class="cls-1" d="M638.02,178.08h-42.25V4.05h42.25l63.26,120.55V4.05h34.85v174.02h-36.76l-61.35-108.85v108.85h0Z"/>
  <path class="cls-1" d="M733.28,4.05h150.87v36.76h-55.38v137.26h-37V40.82h-58.49V4.05Z"/>
  <path class="cls-1" d="M916.15,178.08h-34.85V4.29h34.85v173.79h0Z"/>
  <path class="cls-1" d="M1068.71,178.08h-51.8l-31.99-59.2-30.8,59.2h-40.82l51.09-90.71-47.98-83.07h51.09l28.41,51.8,26.98-51.8h38.43l-44.4,79.49,51.8,94.29h-.01Z"/>
  <path class="cls-1" d="M160.62,93.43c0-.26-.02-.52-.02-.78l-21.33-7.96,18.97-11.22c-1.3-5.37-3.1-10.53-5.37-15.42l-21.34,2.14,11.85-17.81c-3.36-4.38-7.14-8.4-11.28-12l-17.97,11.16,3.12-21.39c-4.75-2.54-9.77-4.6-15.02-6.14l-11.71,18.42-6.55-21.51c-1.28-.06-2.57-.1-3.87-.1-4.03,0-7.99.31-11.86.9l-2.86,22.96-16.06-17.59c-4.68,1.99-9.14,4.42-13.33,7.25l7.7,23.5-23.64-9.41c-3.17,3.64-6.03,7.56-8.54,11.74l18.23,19.13-27.24,2.14c-1.18,4.39-2.04,8.91-2.5,13.56l26.29,9.81L1.15,109.69c.84,4.33,2.01,8.53,3.48,12.58l29.4-2.95-16.97,25.5c2.57,3.31,5.37,6.42,8.39,9.29l25.97-16.13-4.48,30.75c3.72,1.73,7.59,3.17,11.59,4.31l16.5-25.96,8.8,28.89c4.32-.2,8.55-.75,12.67-1.62l3.67-29.51,19.03,20.84c3.97-2.27,7.73-4.87,11.26-7.77l-8.59-26.22,23.92,9.52c2.79-4.03,5.24-8.33,7.3-12.86l-17.27-18.12,23.46-1.84c.86-4.84,1.34-9.83,1.34-14.93v-.03Z"/>
</svg>