<?xml version="1.0" encoding="UTF-8"?>
<svg id="Calque_1" data-name="Calque 1" xmlns="http://www.w3.org/2000/svg" viewBox="0 0 676 693">
  <defs>
    <style>
      .cls-1 {
        stroke-width: 0px;
      }
    </style>
  </defs>
  <path class="cls-1" d="M675.66,346.64c0-1.08-.01-2.16-.02-3.23l-89.58-33.43,79.65-47.13c-5.45-22.51-13.04-44.16-22.55-64.69l-89.59,8.99,49.78-74.81c-14.1-18.36-29.96-35.22-47.34-50.32l-75.46,46.86,13.1-89.85c-19.91-10.64-40.99-19.31-62.98-25.75l-49.18,77.4L354.01.41c-5.38-.26-10.8-.4-16.25-.4-16.91,0-33.53,1.28-49.77,3.74l-12,96.36L208.57,26.26c-19.64,8.35-38.35,18.54-55.92,30.36l32.32,98.68-99.25-39.51c-13.29,15.26-25.28,31.74-35.8,49.25l76.5,80.28-114.4,8.98c-4.94,18.39-8.45,37.39-10.38,56.87l110.32,41.18L6.42,414.81c3.53,18.14,8.43,35.77,14.6,52.77l123.42-12.39-71.25,107.06c10.76,13.88,22.54,26.89,35.22,38.92l109.04-67.72-18.83,129.15c15.61,7.24,31.85,13.3,48.61,18.07l69.28-109.03,36.92,121.25c18.13-.85,35.89-3.16,53.16-6.83l15.42-123.85,79.88,87.48c16.65-9.51,32.44-20.43,47.21-32.59l-36.05-110.09,100.46,39.99c11.7-16.91,21.96-34.95,30.59-53.93l-72.51-76.09,98.55-7.73c3.61-20.31,5.51-41.24,5.51-62.63Z"/>
</svg>